<svg width="26" height="26" viewBox="0 0 26 26" fill="none" xmlns="http://www.w3.org/2000/svg">
<path d="M20.8407 8.59208L13.0314 16.2046L5.22198 8.59208C5.08245 8.45579 4.89515 8.37949 4.7001 8.37949C4.50506 8.37949 4.31776 8.45579 4.17823 8.59208C4.11067 8.65827 4.057 8.73728 4.02036 8.82448C3.98372 8.91167 3.96484 9.0053 3.96484 9.09989C3.96484 9.19447 3.98372 9.2881 4.02036 9.3753C4.057 9.4625 4.11067 9.54151 4.17823 9.6077L12.486 17.7077C12.6319 17.8499 12.8276 17.9295 13.0314 17.9295C13.2351 17.9295 13.4308 17.8499 13.5767 17.7077L21.8845 9.60926C21.9525 9.54302 22.0066 9.46382 22.0435 9.37633C22.0804 9.28884 22.0995 9.19485 22.0995 9.09989C22.0995 9.00493 22.0804 8.91093 22.0435 8.82344C22.0066 8.73596 21.9525 8.65676 21.8845 8.59051C21.745 8.45423 21.5576 8.37793 21.3626 8.37793C21.1676 8.37793 20.9803 8.45423 20.8407 8.59051V8.59208Z" fill="#E6E6E6"/>
</svg>
