<svg width="24" height="23" viewBox="0 0 24 23" fill="none" xmlns="http://www.w3.org/2000/svg">
<path d="M1.91113 0.617554C1.66249 0.617554 1.42404 0.714011 1.24822 0.885706C1.07241 1.0574 0.973633 1.29027 0.973633 1.53308C0.973633 1.77589 1.07241 2.00876 1.24822 2.18046C1.42404 2.35215 1.66249 2.44861 1.91113 2.44861H2.37238C2.57595 2.44895 2.77388 2.514 2.93625 2.63391C3.09862 2.75382 3.2166 2.92209 3.27238 3.11328L6.24613 13.2756C6.41433 13.8491 6.76915 14.3536 7.25695 14.7127C7.74475 15.0717 8.33901 15.266 8.94988 15.266H17.5168C18.079 15.2661 18.6283 15.1016 19.0939 14.7938C19.5594 14.4861 19.9199 14.0491 20.1286 13.5393L22.8924 6.79004C23.006 6.51232 23.0482 6.21164 23.0154 5.9143C22.9825 5.61696 22.8756 5.332 22.7039 5.08434C22.5323 4.83667 22.3011 4.63384 22.0306 4.49356C21.7602 4.35329 21.4586 4.27985 21.1524 4.27966H5.56363L5.07426 2.60974C4.90649 2.03621 4.5521 1.53159 4.06465 1.17217C3.57719 0.812757 2.98318 0.618074 2.37238 0.617554H1.91113ZM8.04988 12.7703L6.09988 6.11072H21.1505L18.3868 12.86C18.3171 13.0297 18.197 13.1752 18.042 13.2776C17.8869 13.3801 17.704 13.4349 17.5168 13.4349H8.94988C8.74631 13.4346 8.54839 13.3695 8.38602 13.2496C8.22365 13.1297 8.10566 12.9615 8.04988 12.7703ZM9.41113 22.5902C9.78048 22.5902 10.1462 22.5192 10.4874 22.3811C10.8287 22.2431 11.1387 22.0408 11.3999 21.7858C11.661 21.5307 11.8682 21.2279 12.0095 20.8947C12.1509 20.5615 12.2236 20.2043 12.2236 19.8436C12.2236 19.4829 12.1509 19.1258 12.0095 18.7926C11.8682 18.4593 11.661 18.1565 11.3999 17.9015C11.1387 17.6465 10.8287 17.4441 10.4874 17.3061C10.1462 17.1681 9.78048 17.097 9.41113 17.097C8.66521 17.097 7.94984 17.3864 7.42239 17.9015C6.89495 18.4166 6.59863 19.1152 6.59863 19.8436C6.59863 20.5721 6.89495 21.2707 7.42239 21.7858C7.94984 22.3008 8.66521 22.5902 9.41113 22.5902ZM9.41113 20.7592C9.16249 20.7592 8.92404 20.6627 8.74822 20.491C8.5724 20.3193 8.47363 20.0864 8.47363 19.8436C8.47363 19.6008 8.5724 19.3679 8.74822 19.1963C8.92404 19.0246 9.16249 18.9281 9.41113 18.9281C9.65977 18.9281 9.89823 19.0246 10.074 19.1963C10.2499 19.3679 10.3486 19.6008 10.3486 19.8436C10.3486 20.0864 10.2499 20.3193 10.074 20.491C9.89823 20.6627 9.65977 20.7592 9.41113 20.7592ZM16.9111 22.5902C17.2805 22.5902 17.6462 22.5192 17.9874 22.3811C18.3287 22.2431 18.6387 22.0408 18.8999 21.7858C19.161 21.5307 19.3682 21.2279 19.5095 20.8947C19.6509 20.5615 19.7236 20.2043 19.7236 19.8436C19.7236 19.4829 19.6509 19.1258 19.5095 18.7926C19.3682 18.4593 19.161 18.1565 18.8999 17.9015C18.6387 17.6465 18.3287 17.4441 17.9874 17.3061C17.6462 17.1681 17.2805 17.097 16.9111 17.097C16.1652 17.097 15.4498 17.3864 14.9224 17.9015C14.3949 18.4166 14.0986 19.1152 14.0986 19.8436C14.0986 20.5721 14.3949 21.2707 14.9224 21.7858C15.4498 22.3008 16.1652 22.5902 16.9111 22.5902ZM16.9111 20.7592C16.6625 20.7592 16.424 20.6627 16.2482 20.491C16.0724 20.3193 15.9736 20.0864 15.9736 19.8436C15.9736 19.6008 16.0724 19.3679 16.2482 19.1963C16.424 19.0246 16.6625 18.9281 16.9111 18.9281C17.1598 18.9281 17.3982 19.0246 17.574 19.1963C17.7499 19.3679 17.8486 19.6008 17.8486 19.8436C17.8486 20.0864 17.7499 20.3193 17.574 20.491C17.3982 20.6627 17.1598 20.7592 16.9111 20.7592Z" fill="white"/>
</svg>
