<svg width="31" height="31" viewBox="0 0 31 31" fill="none" xmlns="http://www.w3.org/2000/svg">
<g clip-path="url(#clip0_123_32)">
<path d="M27.358 5.67188H4.0247C3.58267 5.67188 3.15875 5.84747 2.84619 6.16003C2.53363 6.47259 2.35803 6.89651 2.35803 7.33854V24.0052C2.35803 24.4472 2.53363 24.8712 2.84619 25.1837C3.15875 25.4963 3.58267 25.6719 4.0247 25.6719H27.358C27.8001 25.6719 28.224 25.4963 28.5365 25.1837C28.8491 24.8712 29.0247 24.4472 29.0247 24.0052V7.33854C29.0247 6.89651 28.8491 6.47259 28.5365 6.16003C28.224 5.84747 27.8001 5.67188 27.358 5.67188ZM26.0747 24.0052H5.40803L11.2414 17.9719L10.0414 16.8135L4.0247 23.0385V8.60521L14.383 18.9135C14.6953 19.224 15.1177 19.3982 15.558 19.3982C15.9983 19.3982 16.4208 19.224 16.733 18.9135L27.358 8.34687V22.9302L21.2247 16.7969L20.0497 17.9719L26.0747 24.0052ZM5.11637 7.33854H26.008L15.558 17.7302L5.11637 7.33854Z" fill="white"/>
</g>
<defs>
<clipPath id="clip0_123_32">
<rect width="30" height="30" fill="white" transform="translate(0.691406 0.671875)"/>
</clipPath>
</defs>
</svg>
