<svg width="51" height="52" viewBox="0 0 51 52" fill="none" xmlns="http://www.w3.org/2000/svg">
<path d="M45.1429 0.229492H5.85714C4.43634 0.229492 3.07373 0.808955 2.06907 1.8404C1.06441 2.87186 0.5 4.2708 0.5 5.72949L0.5 46.0628C0.5 47.5215 1.06441 48.9205 2.06907 49.9519C3.07373 50.9834 4.43634 51.5628 5.85714 51.5628H21.1752V34.1106H14.144V25.8962H21.1752V19.6353C21.1752 12.514 25.3047 8.58033 31.6295 8.58033C34.6585 8.58033 37.8259 9.13491 37.8259 9.13491V16.1245H34.3359C30.8973 16.1245 29.8248 18.3153 29.8248 20.5623V25.8962H37.5011L36.2734 34.1106H29.8248V51.5628H45.1429C46.5637 51.5628 47.9263 50.9834 48.9309 49.9519C49.9356 48.9205 50.5 47.5215 50.5 46.0628V5.72949C50.5 4.2708 49.9356 2.87186 48.9309 1.8404C47.9263 0.808955 46.5637 0.229492 45.1429 0.229492Z" fill="#4F4D4D"/>
</svg>
