<svg width="51" height="52" viewBox="0 0 51 52" fill="none" xmlns="http://www.w3.org/2000/svg">
<path d="M25.7433 17.3366C21.1528 17.3366 17.4066 21.1828 17.4066 25.8957C17.4066 30.6086 21.1528 34.4547 25.7433 34.4547C30.3338 34.4547 34.08 30.6086 34.08 25.8957C34.08 21.1828 30.3338 17.3366 25.7433 17.3366ZM50.7472 25.8957C50.7472 22.3514 50.7785 18.8391 50.5846 15.3012C50.3907 11.1919 49.4776 7.54479 46.5507 4.53982C43.6175 1.52842 40.0714 0.597392 36.0688 0.398345C32.6165 0.199298 29.1955 0.231402 25.7495 0.231402C22.2973 0.231402 18.8763 0.199298 15.4303 0.398345C11.4276 0.597392 7.87529 1.53484 4.94837 4.53982C2.01519 7.55121 1.10834 11.1919 0.914467 15.3012C0.72059 18.8455 0.75186 22.3578 0.75186 25.8957C0.75186 29.4336 0.72059 32.9522 0.914467 36.4901C1.10834 40.5995 2.02144 44.2466 4.94837 47.2515C7.88154 50.2629 11.4276 51.194 15.4303 51.393C18.8825 51.5921 22.3035 51.56 25.7495 51.56C29.2018 51.56 32.6228 51.5921 36.0688 51.393C40.0714 51.194 43.6238 50.2565 46.5507 47.2515C49.4839 44.2402 50.3907 40.5995 50.5846 36.4901C50.7847 32.9522 50.7472 29.44 50.7472 25.8957ZM25.7433 39.0649C18.6449 39.0649 12.9161 33.1834 12.9161 25.8957C12.9161 18.608 18.6449 12.7264 25.7433 12.7264C32.8417 12.7264 38.5705 18.608 38.5705 25.8957C38.5705 33.1834 32.8417 39.0649 25.7433 39.0649ZM39.0958 15.2627C37.4385 15.2627 36.1001 13.8886 36.1001 12.1871C36.1001 10.4856 37.4385 9.11149 39.0958 9.11149C40.7531 9.11149 42.0915 10.4856 42.0915 12.1871C42.092 12.5911 42.0149 12.9913 41.8645 13.3647C41.7141 13.7381 41.4935 14.0773 41.2152 14.363C40.9369 14.6487 40.6065 14.8752 40.2428 15.0296C39.8791 15.184 39.4893 15.2632 39.0958 15.2627Z" fill="#4F4D4D"/>
</svg>
