<svg width="14" height="14" viewBox="0 0 14 14" fill="none" xmlns="http://www.w3.org/2000/svg">
<g clip-path="url(#clip0_168_1959)">
<path d="M13.5419 6.78768C13.5419 8.58346 12.8286 10.3057 11.5588 11.5755C10.289 12.8453 8.56673 13.5586 6.77096 13.5586C4.97519 13.5586 3.25297 12.8453 1.98317 11.5755C0.713367 10.3057 0 8.58346 0 6.78768C0 4.99191 0.713367 3.26969 1.98317 1.99989C3.25297 0.730091 4.97519 0.0167236 6.77096 0.0167236C8.56673 0.0167236 10.289 0.730091 11.5588 1.99989C12.8286 3.26969 13.5419 4.99191 13.5419 6.78768ZM10.1818 4.22318C10.1214 4.16294 10.0494 4.1155 9.97018 4.08371C9.89097 4.05193 9.80617 4.03644 9.72083 4.03818C9.6355 4.03992 9.5514 4.05884 9.47355 4.09383C9.3957 4.12882 9.32571 4.17915 9.26775 4.2418L6.32831 7.98699L4.55686 6.21469C4.43652 6.10257 4.27737 6.04152 4.11292 6.04442C3.94847 6.04733 3.79156 6.11395 3.67526 6.23025C3.55896 6.34655 3.49234 6.50345 3.48944 6.6679C3.48653 6.83236 3.54758 6.99151 3.6597 7.11185L5.8992 9.35219C5.95953 9.41241 6.03137 9.45986 6.11044 9.49171C6.18951 9.52357 6.27418 9.53917 6.35941 9.53759C6.44464 9.53601 6.52868 9.51728 6.60651 9.48252C6.68434 9.44776 6.75438 9.39767 6.81243 9.33526L10.1911 5.11187C10.3063 4.99211 10.37 4.83196 10.3684 4.6658C10.3668 4.49964 10.3001 4.34073 10.1827 4.22318H10.1818Z" fill="#FAFAFA"/>
</g>
<defs>
<clipPath id="clip0_168_1959">
<rect width="13.5419" height="13.5419" fill="white" transform="translate(0 0.0167236)"/>
</clipPath>
</defs>
</svg>
