<svg width="30" height="31" viewBox="0 0 30 31" fill="none" xmlns="http://www.w3.org/2000/svg">
<g clip-path="url(#clip0_123_35)">
<path d="M15 0.671875C8.75446 0.671875 3.69141 5.7349 3.69141 11.9805C3.69141 14.0691 4.10023 16.2264 5.27343 17.7812L15 30.6719L24.7266 17.7812C25.7922 16.369 26.3086 13.8723 26.3086 11.9805C26.3086 5.7349 21.2456 0.671875 15 0.671875ZM15 7.22155C17.6279 7.22155 19.7589 9.35258 19.7589 11.9804C19.7589 14.6084 17.6279 16.7394 15 16.7394C12.3721 16.7394 10.2411 14.6084 10.2411 11.9805C10.2411 9.35258 12.3721 7.22155 15 7.22155Z" fill="white"/>
</g>
<defs>
<clipPath id="clip0_123_35">
<rect width="30" height="30" fill="white" transform="translate(0 0.671875)"/>
</clipPath>
</defs>
</svg>
