<svg width="50" height="59" viewBox="0 0 50 59" fill="none" xmlns="http://www.w3.org/2000/svg">
<path d="M50 9.92013V49.2058C50 52.1634 47.6004 54.563 44.6429 54.563H17.2321C18.3259 52.7326 19.7321 50.0987 20.2902 47.9447C20.625 46.6612 21.9978 41.4268 21.9978 41.4268C22.8906 43.1344 25.5022 44.5742 28.2812 44.5742C36.5513 44.5742 42.5 36.9737 42.5 27.5317C42.5 18.4804 35.1116 11.7058 25.6027 11.7058C13.7723 11.7058 7.5 19.6411 7.5 28.2907C7.5 32.3085 9.64286 37.3085 13.058 38.9045C13.5826 39.15 13.8504 39.0384 13.9732 38.5362C14.0625 38.1567 14.5312 36.2929 14.7321 35.4335C14.7991 35.1545 14.7656 34.9201 14.5424 34.6523C13.4152 33.2795 12.5 30.7572 12.5 28.4023C12.5 22.3532 17.0759 16.505 24.8772 16.505C31.6071 16.505 36.3281 21.092 36.3281 27.6545C36.3281 35.0652 32.5893 40.1991 27.7121 40.1991C25.0223 40.1991 23.0134 37.9782 23.6496 35.2438C24.4196 31.9849 25.9152 28.4692 25.9152 26.1143C25.9152 20.1991 17.4888 21.0139 17.4888 28.9045C17.4888 31.3264 18.3036 32.9782 18.3036 32.9782C14.7991 47.7996 14.2746 47.9893 15 54.4737L15.2455 54.563H5.35714C2.39955 54.563 0 52.1634 0 49.2058V9.92013C0 6.96254 2.39955 4.56299 5.35714 4.56299H44.6429C47.6004 4.56299 50 6.96254 50 9.92013Z" fill="#4F4D4D"/>
</svg>
