<svg width="15" height="15" viewBox="0 0 15 15" fill="none" xmlns="http://www.w3.org/2000/svg">
<path d="M14.4627 5.20682L9.9996 4.55819L8.00448 0.513459C7.94999 0.402716 7.86034 0.313068 7.7496 0.258576C7.47186 0.121466 7.13436 0.235724 6.9955 0.513459L5.00038 4.55819L0.537292 5.20682C0.414245 5.2244 0.301745 5.2824 0.215612 5.37029C0.111482 5.47732 0.0541021 5.62131 0.0560797 5.77062C0.0580574 5.91993 0.119231 6.06235 0.226159 6.16658L3.45526 9.31483L2.69237 13.7603C2.67448 13.8637 2.68592 13.9701 2.7254 14.0673C2.76488 14.1646 2.83082 14.2488 2.91573 14.3105C3.00065 14.3722 3.10114 14.4088 3.20583 14.4163C3.31051 14.4237 3.41519 14.4017 3.508 14.3527L7.49999 12.2539L11.492 14.3527C11.601 14.4107 11.7275 14.4301 11.8488 14.409C12.1547 14.3562 12.3603 14.0662 12.3076 13.7603L11.5447 9.31483L14.7738 6.16658C14.8617 6.08045 14.9197 5.96795 14.9373 5.8449C14.9848 5.53729 14.7703 5.25252 14.4627 5.20682Z" fill="#F2AE00"/>
</svg>
