<svg width="51" height="59" viewBox="0 0 51 59" fill="none" xmlns="http://www.w3.org/2000/svg">
<g clip-path="url(#clip0_123_19)">
<path d="M50.5 24.4192C45.5865 24.4309 40.7935 22.8986 36.798 20.0386V39.985C36.7967 43.6793 35.6675 47.2851 33.5615 50.3204C31.4555 53.3556 28.4731 55.6755 25.013 56.97C21.5529 58.2644 17.7801 58.4717 14.199 57.564C10.6179 56.6563 7.39933 54.677 4.97354 51.8907C2.54776 49.1045 1.03042 45.644 0.624428 41.9721C0.218434 38.3002 0.94313 34.5918 2.70162 31.3429C4.4601 28.0939 7.16856 25.4593 10.4648 23.7912C13.7611 22.1232 17.488 21.5012 21.1474 22.0084V32.0408C19.4728 31.5141 17.6747 31.53 16.0098 32.0861C14.3448 32.6423 12.8982 33.7104 11.8765 35.1378C10.8547 36.5651 10.3102 38.2789 10.3205 40.0342C10.3308 41.7896 10.8956 43.4968 11.934 44.9121C12.9725 46.3273 14.4316 47.3783 16.103 47.9148C17.7744 48.4513 19.5726 48.446 21.2408 47.8996C22.9089 47.3532 24.3618 46.2936 25.3919 44.8723C26.422 43.4509 26.9766 41.7404 26.9766 39.985V0.991699H36.798C36.7912 1.8211 36.8607 2.64936 37.0056 3.46603C37.3469 5.28911 38.0565 7.0234 39.091 8.56283C40.1256 10.1023 41.4633 11.4145 43.0224 12.4192C45.2404 13.8858 47.8409 14.6675 50.5 14.6669V24.4192Z" fill="#4F4D4D"/>
</g>
<defs>
<clipPath id="clip0_123_19">
<rect width="50" height="57.1429" fill="white" transform="translate(0.5 0.991699)"/>
</clipPath>
</defs>
</svg>
