<svg width="89" height="89" viewBox="0 0 89 89" fill="none" xmlns="http://www.w3.org/2000/svg">
<g clip-path="url(#clip0_80_1251)">
<path d="M44.9375 40.3592C48.4383 40.3592 51.7958 38.9685 54.2713 36.493C56.7468 34.0176 58.1375 30.6601 58.1375 27.1592C58.1375 23.6584 56.7468 20.3009 54.2713 17.8254C51.7958 15.3499 48.4383 13.9592 44.9375 13.9592C41.4366 13.9592 38.0791 15.3499 35.6037 17.8254C33.1282 20.3009 31.7375 23.6584 31.7375 27.1592C31.7375 30.6601 33.1282 34.0176 35.6037 36.493C38.0791 38.9685 41.4366 40.3592 44.9375 40.3592ZM27.3375 35.9592C27.3375 38.2931 26.4103 40.5314 24.76 42.1818C23.1097 43.8321 20.8714 44.7592 18.5375 44.7592C16.2036 44.7592 13.9653 43.8321 12.3149 42.1818C10.6646 40.5314 9.73748 38.2931 9.73748 35.9592C9.73748 33.6253 10.6646 31.387 12.3149 29.7367C13.9653 28.0864 16.2036 27.1592 18.5375 27.1592C20.8714 27.1592 23.1097 28.0864 24.76 29.7367C26.4103 31.387 27.3375 33.6253 27.3375 35.9592ZM7.49348 68.1936C6.74234 67.7667 6.17984 67.0723 5.91828 66.2488C5.14302 63.7379 5.13489 61.0527 5.89493 58.5371C6.65497 56.0215 8.14858 53.79 10.1845 52.1283C12.2204 50.4667 14.7059 49.4506 17.3228 49.2101C19.9397 48.9696 22.5688 49.5157 24.8735 50.7784C20.1375 55.4326 17.1732 61.593 16.4915 68.198C16.3903 69.1748 16.4299 70.1428 16.6015 71.0756C13.3902 70.798 10.28 69.8138 7.49348 68.1936ZM73.2735 71.0712C76.4844 70.7949 79.5946 69.8123 82.3815 68.1936C83.131 67.7659 83.6918 67.0715 83.9523 66.2488C84.7288 63.7376 84.7378 61.0517 83.9783 58.5353C83.2188 56.0189 81.7253 53.7865 79.6891 52.1242C77.653 50.4619 75.1669 49.4454 72.5493 49.2048C69.9318 48.9643 67.3021 49.5107 64.9971 50.774C69.7373 55.428 72.7048 61.5903 73.3879 68.198C73.4859 69.1578 73.4474 70.1267 73.2735 71.0756V71.0712ZM80.1375 35.9592C80.1375 38.2931 79.2103 40.5314 77.56 42.1818C75.9097 43.8321 73.6714 44.7592 71.3375 44.7592C69.0036 44.7592 66.7653 43.8321 65.1149 42.1818C63.4646 40.5314 62.5375 38.2931 62.5375 35.9592C62.5375 33.6253 63.4646 31.387 65.1149 29.7367C66.7653 28.0864 69.0036 27.1592 71.3375 27.1592C73.6714 27.1592 75.9097 28.0864 77.56 29.7367C79.2103 31.387 80.1375 33.6253 80.1375 35.9592ZM24.2751 71.9952C23.8411 71.6066 23.5047 71.1213 23.293 70.5786C23.0813 70.0359 23.0002 69.451 23.0563 68.8712C23.6159 63.4569 26.1629 58.4424 30.2048 54.7967C34.2467 51.1511 39.4965 49.1333 44.9397 49.1333C50.3828 49.1333 55.6327 51.1511 59.6746 54.7967C63.7165 58.4424 66.2634 63.4569 66.8231 68.8712C66.8795 69.4511 66.7986 70.0361 66.5869 70.5788C66.3751 71.1216 66.0385 71.6068 65.6043 71.9952C59.9468 77.1298 52.5776 79.9695 44.9375 79.9592C37.2988 79.9689 29.9312 77.1291 24.2751 71.9952Z" fill="#262626"/>
<rect x="87" y="17" width="33" height="76" fill="#D9D9D9"/>
</g>
<defs>
<clipPath id="clip0_80_1251">
<rect width="88" height="88" fill="white" transform="translate(0.9375 0.759277)"/>
</clipPath>
</defs>
</svg>
