<svg width="88" height="62" viewBox="0 0 88 62" fill="none" xmlns="http://www.w3.org/2000/svg">
<path d="M86.0129 9.99119C85.5087 8.12781 84.5252 6.42904 83.1602 5.06402C81.7952 3.699 80.0965 2.71536 78.2332 2.21106C71.4114 0.350586 43.9562 0.350586 43.9562 0.350586C43.9562 0.350586 16.4997 0.406901 9.67795 2.26737C7.81456 2.77171 6.1158 3.75539 4.75083 5.12048C3.38587 6.48556 2.40233 8.18441 1.89816 10.0478C-0.16525 22.1687 -0.965685 40.6382 1.95482 52.2742C2.45904 54.1376 3.4426 55.8363 4.80756 57.2014C6.17252 58.5664 7.87126 59.55 9.73461 60.0543C16.5563 61.9148 44.0122 61.9148 44.0122 61.9148C44.0122 61.9148 71.4678 61.9148 78.2891 60.0543C80.1525 59.5501 81.8514 58.5664 83.2164 57.2014C84.5814 55.8364 85.565 54.1376 86.0693 52.2742C88.2457 40.1361 88.9163 21.6784 86.0129 9.99153V9.99119Z" fill="#BABABA" fill-opacity="0.75"/>
<path d="M32.6119 44.3249L55.3881 31.1327L32.6119 17.9404V44.3249Z" fill="white" fill-opacity="0.75"/>
</svg>
