<svg width="51" height="59" viewBox="0 0 51 59" fill="none" xmlns="http://www.w3.org/2000/svg">
<g clip-path="url(#clip0_123_15)">
<path d="M31.8581 40.9244V47.8129C31.8581 49.2711 31.4349 50.0002 30.5885 50.0002C30.0894 50.0002 29.6011 49.7608 29.1237 49.282V39.4553C29.6011 38.9764 30.0894 38.737 30.5885 38.737C31.4349 38.737 31.8581 39.4661 31.8581 40.9244ZM42.8607 40.957V42.4588H39.931V40.957C39.931 39.477 40.4193 38.737 41.3958 38.737C42.3724 38.737 42.8607 39.477 42.8607 40.957ZM11.4154 33.84H14.8984V30.7712H4.74219V33.84H8.16016V52.4161H11.4154V33.84ZM20.7904 52.4161H23.6875V36.2885H20.7904V48.6291C20.1393 49.5432 19.5208 50.0002 18.9349 50.0002C18.5443 50.0002 18.3164 49.7717 18.2513 49.3147C18.2296 49.2494 18.2188 48.8685 18.2188 48.172V36.2885H15.3216V49.0535C15.3216 50.1199 15.4084 50.9144 15.582 51.4367C15.8424 52.242 16.4718 52.6446 17.4701 52.6446C18.5117 52.6446 19.6185 51.9808 20.7904 50.6532V52.4161ZM34.7552 47.5844V41.1529C34.7552 39.5641 34.6576 38.4867 34.4622 37.9209C34.0933 36.702 33.3229 36.0926 32.151 36.0926C31.066 36.0926 30.0569 36.6803 29.1237 37.8556V30.7712H26.2266V52.4161H29.1237V50.8491C30.1003 52.0461 31.1094 52.6446 32.151 52.6446C33.3229 52.6446 34.0933 52.0461 34.4622 50.8491C34.6576 50.2614 34.7552 49.1732 34.7552 47.5844ZM45.7578 47.2579V46.8335H42.7956C42.7956 47.9435 42.7739 48.6073 42.7305 48.8249C42.5786 49.6085 42.1445 50.0002 41.4284 50.0002C40.4301 50.0002 39.931 49.2494 39.931 47.7476V44.9073H45.7578V41.5447C45.7578 39.8253 45.4648 38.5629 44.8789 37.7576C44.0326 36.6476 42.8824 36.0926 41.4284 36.0926C39.9527 36.0926 38.7917 36.6476 37.9453 37.7576C37.3377 38.5629 37.0339 39.8253 37.0339 41.5447V47.1926C37.0339 48.912 37.3485 50.1744 37.9779 50.9796C38.8242 52.0896 39.9961 52.6446 41.4935 52.6446C43.056 52.6446 44.2279 52.0679 45.0091 50.9144C45.3997 50.3267 45.6276 49.7391 45.6927 49.1514C45.7361 48.9555 45.7578 48.3244 45.7578 47.2579ZM25.9661 17.4512V10.5953C25.9661 9.09356 25.4996 8.34268 24.5664 8.34268C23.6332 8.34268 23.1667 9.09356 23.1667 10.5953V17.4512C23.1667 18.9747 23.6332 19.7365 24.5664 19.7365C25.4996 19.7365 25.9661 18.9747 25.9661 17.4512ZM49.3711 41.9691C49.3711 47.062 49.089 50.8708 48.5247 53.3955C48.2209 54.6796 47.5916 55.757 46.6367 56.6276C45.6819 57.4982 44.5751 57.9987 43.3164 58.1293C39.3233 58.5864 33.3012 58.8149 25.25 58.8149C17.1988 58.8149 11.1766 58.5864 7.18359 58.1293C5.92491 57.9987 4.81272 57.4982 3.84701 56.6276C2.88129 55.757 2.25738 54.6796 1.97526 53.3955C1.41102 50.9579 1.12891 47.1491 1.12891 41.9691C1.12891 36.8761 1.41102 33.0673 1.97526 30.5426C2.27908 29.2585 2.90842 28.1812 3.86328 27.3106C4.81814 26.44 5.93576 25.9285 7.21615 25.7762C11.1875 25.3409 17.1988 25.1232 25.25 25.1232C33.3012 25.1232 39.3233 25.3409 43.3164 25.7762C44.5751 25.9285 45.6873 26.44 46.653 27.3106C47.6187 28.1812 48.2426 29.2585 48.5247 30.5426C49.089 32.9803 49.3711 36.7891 49.3711 41.9691ZM16.8841 0.311523H20.2044L16.2656 13.3377V22.185H13.0104V13.3377C12.7066 11.7271 12.0447 9.42003 11.0247 6.41651C10.2218 4.17475 9.51649 2.13975 8.90885 0.311523H12.3594L14.6706 8.89768L16.8841 0.311523ZM28.9284 11.183V16.8962C28.9284 18.6591 28.6246 19.9432 28.0169 20.7485C27.1923 21.8585 26.0421 22.4135 24.5664 22.4135C23.1124 22.4135 21.9731 21.8585 21.1484 20.7485C20.5408 19.9215 20.237 18.6374 20.237 16.8962V11.183C20.237 9.4418 20.5408 8.16857 21.1484 7.36327C21.9731 6.25328 23.1124 5.69828 24.5664 5.69828C26.0421 5.69828 27.1923 6.25328 28.0169 7.36327C28.6246 8.16857 28.9284 9.4418 28.9284 11.183ZM39.8333 5.89416V22.185H36.8711V20.3894C35.7209 21.7388 34.6033 22.4135 33.5182 22.4135C32.52 22.4135 31.8798 22.0109 31.5977 21.2056C31.424 20.6832 31.3372 19.8671 31.3372 18.7571V5.89416H34.2995V17.8756C34.2995 18.5938 34.3103 18.9747 34.332 19.0182C34.3971 19.4971 34.625 19.7365 35.0156 19.7365C35.6016 19.7365 36.2201 19.2685 36.8711 18.3327V5.89416H39.8333Z" fill="#4F4D4D"/>
</g>
<defs>
<clipPath id="clip0_123_15">
<rect width="50" height="58.5034" fill="white" transform="translate(0.25 0.311523)"/>
</clipPath>
</defs>
</svg>
